<mxfile host="Electron" agent="Mozilla/5.0 (Windows NT 10.0; Win64; x64) AppleWebKit/537.36 (KHTML, like Gecko) draw.io/24.7.8 Chrome/128.0.6613.36 Electron/32.0.1 Safari/537.36" version="24.7.8">
  <diagram name="PÃ¡gina-1" id="NU3Lg-H8xVEBIbT-PS1q">
    <mxGraphModel dx="785" dy="505" grid="1" gridSize="10" guides="1" tooltips="1" connect="1" arrows="1" fold="1" page="1" pageScale="1" pageWidth="827" pageHeight="1169" math="0" shadow="0">
      <root>
        <mxCell id="0" />
        <mxCell id="1" parent="0" />
        <mxCell id="Htf_PntQGy5ZtsVoVVIq-1" value="lugares" style="rounded=1;arcSize=10;whiteSpace=wrap;html=1;align=center;" vertex="1" parent="1">
          <mxGeometry x="199" y="40" width="100" height="40" as="geometry" />
        </mxCell>
        <mxCell id="Htf_PntQGy5ZtsVoVVIq-6" value="ciclos" style="rounded=1;arcSize=10;whiteSpace=wrap;html=1;align=center;" vertex="1" parent="1">
          <mxGeometry x="540" y="40" width="100" height="40" as="geometry" />
        </mxCell>
        <mxCell id="Htf_PntQGy5ZtsVoVVIq-7" value="Attribute" style="ellipse;whiteSpace=wrap;html=1;align=center;" vertex="1" parent="1">
          <mxGeometry x="1051" y="425" width="100" height="40" as="geometry" />
        </mxCell>
        <mxCell id="Htf_PntQGy5ZtsVoVVIq-8" value="Attribute" style="ellipse;whiteSpace=wrap;html=1;align=center;" vertex="1" parent="1">
          <mxGeometry x="1061" y="435" width="100" height="40" as="geometry" />
        </mxCell>
        <mxCell id="Htf_PntQGy5ZtsVoVVIq-9" value="Attribute" style="ellipse;whiteSpace=wrap;html=1;align=center;" vertex="1" parent="1">
          <mxGeometry x="1071" y="445" width="100" height="40" as="geometry" />
        </mxCell>
        <mxCell id="Htf_PntQGy5ZtsVoVVIq-10" value="Attribute" style="ellipse;whiteSpace=wrap;html=1;align=center;" vertex="1" parent="1">
          <mxGeometry x="1081" y="455" width="100" height="40" as="geometry" />
        </mxCell>
        <mxCell id="Htf_PntQGy5ZtsVoVVIq-11" value="Attribute" style="ellipse;whiteSpace=wrap;html=1;align=center;" vertex="1" parent="1">
          <mxGeometry x="1091" y="465" width="100" height="40" as="geometry" />
        </mxCell>
        <mxCell id="Htf_PntQGy5ZtsVoVVIq-12" value="Attribute" style="ellipse;whiteSpace=wrap;html=1;align=center;" vertex="1" parent="1">
          <mxGeometry x="1101" y="475" width="100" height="40" as="geometry" />
        </mxCell>
        <mxCell id="Htf_PntQGy5ZtsVoVVIq-13" value="Attribute" style="ellipse;whiteSpace=wrap;html=1;align=center;" vertex="1" parent="1">
          <mxGeometry x="1111" y="485" width="100" height="40" as="geometry" />
        </mxCell>
        <mxCell id="Htf_PntQGy5ZtsVoVVIq-14" value="Attribute" style="ellipse;whiteSpace=wrap;html=1;align=center;" vertex="1" parent="1">
          <mxGeometry x="1121" y="495" width="100" height="40" as="geometry" />
        </mxCell>
        <mxCell id="Htf_PntQGy5ZtsVoVVIq-15" value="Attribute" style="ellipse;whiteSpace=wrap;html=1;align=center;" vertex="1" parent="1">
          <mxGeometry x="1131" y="505" width="100" height="40" as="geometry" />
        </mxCell>
        <mxCell id="Htf_PntQGy5ZtsVoVVIq-16" value="Attribute" style="ellipse;whiteSpace=wrap;html=1;align=center;" vertex="1" parent="1">
          <mxGeometry x="1141" y="515" width="100" height="40" as="geometry" />
        </mxCell>
        <mxCell id="Htf_PntQGy5ZtsVoVVIq-17" value="respuestas" style="rounded=1;arcSize=10;whiteSpace=wrap;html=1;align=center;" vertex="1" parent="1">
          <mxGeometry x="1480" y="280" width="100" height="40" as="geometry" />
        </mxCell>
        <mxCell id="Htf_PntQGy5ZtsVoVVIq-18" value="asig_estudiantes" style="rounded=1;arcSize=10;whiteSpace=wrap;html=1;align=center;" vertex="1" parent="1">
          <mxGeometry x="1480" y="240" width="100" height="40" as="geometry" />
        </mxCell>
        <mxCell id="Htf_PntQGy5ZtsVoVVIq-19" value="asignaciones" style="rounded=1;arcSize=10;whiteSpace=wrap;html=1;align=center;" vertex="1" parent="1">
          <mxGeometry x="540" y="320" width="100" height="40" as="geometry" />
        </mxCell>
        <mxCell id="Htf_PntQGy5ZtsVoVVIq-20" value="opciones" style="rounded=1;arcSize=10;whiteSpace=wrap;html=1;align=center;" vertex="1" parent="1">
          <mxGeometry x="1480" y="160" width="100" height="40" as="geometry" />
        </mxCell>
        <mxCell id="Htf_PntQGy5ZtsVoVVIq-21" value="preguntas" style="rounded=1;arcSize=10;whiteSpace=wrap;html=1;align=center;" vertex="1" parent="1">
          <mxGeometry x="1221" y="40" width="100" height="40" as="geometry" />
        </mxCell>
        <mxCell id="Htf_PntQGy5ZtsVoVVIq-22" value="secciones_enc" style="rounded=1;arcSize=10;whiteSpace=wrap;html=1;align=center;" vertex="1" parent="1">
          <mxGeometry x="881" y="40" width="100" height="40" as="geometry" />
        </mxCell>
        <mxCell id="Htf_PntQGy5ZtsVoVVIq-23" value="encuestas" style="rounded=1;arcSize=10;whiteSpace=wrap;html=1;align=center;" vertex="1" parent="1">
          <mxGeometry x="881" y="320" width="100" height="40" as="geometry" />
        </mxCell>
        <mxCell id="Htf_PntQGy5ZtsVoVVIq-24" value="estudiantes_sem" style="rounded=1;arcSize=10;whiteSpace=wrap;html=1;align=center;" vertex="1" parent="1">
          <mxGeometry x="1480" y="80" width="100" height="40" as="geometry" />
        </mxCell>
        <mxCell id="Htf_PntQGy5ZtsVoVVIq-25" value="instituciones" style="rounded=1;arcSize=10;whiteSpace=wrap;html=1;align=center;" vertex="1" parent="1">
          <mxGeometry x="199" y="320" width="100" height="40" as="geometry" />
        </mxCell>
        <mxCell id="Htf_PntQGy5ZtsVoVVIq-27" value="Relationship" style="shape=rhombus;perimeter=rhombusPerimeter;whiteSpace=wrap;html=1;align=center;" vertex="1" parent="1">
          <mxGeometry x="881" y="465" width="120" height="60" as="geometry" />
        </mxCell>
        <mxCell id="Htf_PntQGy5ZtsVoVVIq-28" value="Relationship" style="shape=rhombus;perimeter=rhombusPerimeter;whiteSpace=wrap;html=1;align=center;" vertex="1" parent="1">
          <mxGeometry x="891" y="475" width="120" height="60" as="geometry" />
        </mxCell>
        <mxCell id="Htf_PntQGy5ZtsVoVVIq-29" value="Relationship" style="shape=rhombus;perimeter=rhombusPerimeter;whiteSpace=wrap;html=1;align=center;" vertex="1" parent="1">
          <mxGeometry x="901" y="485" width="120" height="60" as="geometry" />
        </mxCell>
        <mxCell id="Htf_PntQGy5ZtsVoVVIq-58" style="edgeStyle=orthogonalEdgeStyle;rounded=0;orthogonalLoop=1;jettySize=auto;html=1;endArrow=none;endFill=0;" edge="1" parent="1" source="Htf_PntQGy5ZtsVoVVIq-30" target="Htf_PntQGy5ZtsVoVVIq-22">
          <mxGeometry relative="1" as="geometry" />
        </mxCell>
        <mxCell id="Htf_PntQGy5ZtsVoVVIq-59" style="edgeStyle=orthogonalEdgeStyle;rounded=0;orthogonalLoop=1;jettySize=auto;html=1;endArrow=ERoneToMany;endFill=0;" edge="1" parent="1" source="Htf_PntQGy5ZtsVoVVIq-30" target="Htf_PntQGy5ZtsVoVVIq-21">
          <mxGeometry relative="1" as="geometry" />
        </mxCell>
        <mxCell id="Htf_PntQGy5ZtsVoVVIq-30" value="tiene" style="shape=rhombus;perimeter=rhombusPerimeter;whiteSpace=wrap;html=1;align=center;" vertex="1" parent="1">
          <mxGeometry x="1041" y="30" width="120" height="60" as="geometry" />
        </mxCell>
        <mxCell id="Htf_PntQGy5ZtsVoVVIq-54" style="edgeStyle=orthogonalEdgeStyle;rounded=0;orthogonalLoop=1;jettySize=auto;html=1;exitX=0.5;exitY=1;exitDx=0;exitDy=0;endArrow=none;endFill=0;" edge="1" parent="1" source="Htf_PntQGy5ZtsVoVVIq-31" target="Htf_PntQGy5ZtsVoVVIq-23">
          <mxGeometry relative="1" as="geometry" />
        </mxCell>
        <mxCell id="Htf_PntQGy5ZtsVoVVIq-55" style="edgeStyle=orthogonalEdgeStyle;rounded=0;orthogonalLoop=1;jettySize=auto;html=1;endArrow=ERoneToMany;endFill=0;" edge="1" parent="1" source="Htf_PntQGy5ZtsVoVVIq-31" target="Htf_PntQGy5ZtsVoVVIq-22">
          <mxGeometry relative="1" as="geometry" />
        </mxCell>
        <mxCell id="Htf_PntQGy5ZtsVoVVIq-31" value="pertenece" style="shape=rhombus;perimeter=rhombusPerimeter;whiteSpace=wrap;html=1;align=center;" vertex="1" parent="1">
          <mxGeometry x="871" y="170" width="120" height="60" as="geometry" />
        </mxCell>
        <mxCell id="Htf_PntQGy5ZtsVoVVIq-52" style="edgeStyle=orthogonalEdgeStyle;rounded=0;orthogonalLoop=1;jettySize=auto;html=1;endArrow=none;endFill=0;" edge="1" parent="1" source="Htf_PntQGy5ZtsVoVVIq-32" target="Htf_PntQGy5ZtsVoVVIq-23">
          <mxGeometry relative="1" as="geometry" />
        </mxCell>
        <mxCell id="Htf_PntQGy5ZtsVoVVIq-53" style="edgeStyle=orthogonalEdgeStyle;rounded=0;orthogonalLoop=1;jettySize=auto;html=1;endArrow=ERoneToMany;endFill=0;" edge="1" parent="1" source="Htf_PntQGy5ZtsVoVVIq-32" target="Htf_PntQGy5ZtsVoVVIq-19">
          <mxGeometry relative="1" as="geometry" />
        </mxCell>
        <mxCell id="Htf_PntQGy5ZtsVoVVIq-32" value="corresponde" style="shape=rhombus;perimeter=rhombusPerimeter;whiteSpace=wrap;html=1;align=center;" vertex="1" parent="1">
          <mxGeometry x="700" y="310" width="120" height="60" as="geometry" />
        </mxCell>
        <mxCell id="Htf_PntQGy5ZtsVoVVIq-50" style="edgeStyle=orthogonalEdgeStyle;rounded=0;orthogonalLoop=1;jettySize=auto;html=1;exitX=0;exitY=0.5;exitDx=0;exitDy=0;endArrow=none;endFill=0;" edge="1" parent="1" source="Htf_PntQGy5ZtsVoVVIq-33" target="Htf_PntQGy5ZtsVoVVIq-25">
          <mxGeometry relative="1" as="geometry" />
        </mxCell>
        <mxCell id="Htf_PntQGy5ZtsVoVVIq-51" style="edgeStyle=orthogonalEdgeStyle;rounded=0;orthogonalLoop=1;jettySize=auto;html=1;exitX=1;exitY=0.5;exitDx=0;exitDy=0;endArrow=ERoneToMany;endFill=0;" edge="1" parent="1" source="Htf_PntQGy5ZtsVoVVIq-33" target="Htf_PntQGy5ZtsVoVVIq-19">
          <mxGeometry relative="1" as="geometry" />
        </mxCell>
        <mxCell id="Htf_PntQGy5ZtsVoVVIq-33" value="tiene" style="shape=rhombus;perimeter=rhombusPerimeter;whiteSpace=wrap;html=1;align=center;" vertex="1" parent="1">
          <mxGeometry x="358" y="310" width="120" height="60" as="geometry" />
        </mxCell>
        <mxCell id="Htf_PntQGy5ZtsVoVVIq-48" style="edgeStyle=orthogonalEdgeStyle;rounded=0;orthogonalLoop=1;jettySize=auto;html=1;exitX=0.5;exitY=0;exitDx=0;exitDy=0;endArrow=none;endFill=0;" edge="1" parent="1" source="Htf_PntQGy5ZtsVoVVIq-34" target="Htf_PntQGy5ZtsVoVVIq-6">
          <mxGeometry relative="1" as="geometry" />
        </mxCell>
        <mxCell id="Htf_PntQGy5ZtsVoVVIq-49" style="edgeStyle=orthogonalEdgeStyle;rounded=0;orthogonalLoop=1;jettySize=auto;html=1;exitX=0.5;exitY=1;exitDx=0;exitDy=0;endArrow=ERoneToMany;endFill=0;" edge="1" parent="1" source="Htf_PntQGy5ZtsVoVVIq-34" target="Htf_PntQGy5ZtsVoVVIq-19">
          <mxGeometry relative="1" as="geometry" />
        </mxCell>
        <mxCell id="Htf_PntQGy5ZtsVoVVIq-34" value="se compone" style="shape=rhombus;perimeter=rhombusPerimeter;whiteSpace=wrap;html=1;align=center;" vertex="1" parent="1">
          <mxGeometry x="530" y="170" width="120" height="60" as="geometry" />
        </mxCell>
        <mxCell id="Htf_PntQGy5ZtsVoVVIq-46" style="edgeStyle=orthogonalEdgeStyle;rounded=0;orthogonalLoop=1;jettySize=auto;html=1;exitX=0.5;exitY=0;exitDx=0;exitDy=0;endArrow=none;endFill=0;" edge="1" parent="1" source="Htf_PntQGy5ZtsVoVVIq-35" target="Htf_PntQGy5ZtsVoVVIq-1">
          <mxGeometry relative="1" as="geometry" />
        </mxCell>
        <mxCell id="Htf_PntQGy5ZtsVoVVIq-47" style="edgeStyle=orthogonalEdgeStyle;rounded=0;orthogonalLoop=1;jettySize=auto;html=1;exitX=0.5;exitY=1;exitDx=0;exitDy=0;endArrow=ERoneToMany;endFill=0;" edge="1" parent="1" source="Htf_PntQGy5ZtsVoVVIq-35" target="Htf_PntQGy5ZtsVoVVIq-25">
          <mxGeometry relative="1" as="geometry" />
        </mxCell>
        <mxCell id="Htf_PntQGy5ZtsVoVVIq-35" value="esta" style="shape=rhombus;perimeter=rhombusPerimeter;whiteSpace=wrap;html=1;align=center;" vertex="1" parent="1">
          <mxGeometry x="189" y="170" width="120" height="60" as="geometry" />
        </mxCell>
        <mxCell id="Htf_PntQGy5ZtsVoVVIq-44" style="edgeStyle=orthogonalEdgeStyle;rounded=0;orthogonalLoop=1;jettySize=auto;html=1;endArrow=none;endFill=0;" edge="1" parent="1" source="Htf_PntQGy5ZtsVoVVIq-36" target="Htf_PntQGy5ZtsVoVVIq-1">
          <mxGeometry relative="1" as="geometry" />
        </mxCell>
        <mxCell id="Htf_PntQGy5ZtsVoVVIq-45" style="rounded=0;orthogonalLoop=1;jettySize=auto;html=1;endArrow=ERoneToMany;endFill=0;" edge="1" parent="1" source="Htf_PntQGy5ZtsVoVVIq-36" target="Htf_PntQGy5ZtsVoVVIq-6">
          <mxGeometry relative="1" as="geometry" />
        </mxCell>
        <mxCell id="Htf_PntQGy5ZtsVoVVIq-36" value="asocia" style="shape=rhombus;perimeter=rhombusPerimeter;whiteSpace=wrap;html=1;align=center;" vertex="1" parent="1">
          <mxGeometry x="358" y="30" width="120" height="60" as="geometry" />
        </mxCell>
        <mxCell id="Htf_PntQGy5ZtsVoVVIq-56" style="edgeStyle=orthogonalEdgeStyle;rounded=0;orthogonalLoop=1;jettySize=auto;html=1;exitX=0.5;exitY=1;exitDx=0;exitDy=0;" edge="1" parent="1" source="Htf_PntQGy5ZtsVoVVIq-31" target="Htf_PntQGy5ZtsVoVVIq-31">
          <mxGeometry relative="1" as="geometry" />
        </mxCell>
      </root>
    </mxGraphModel>
  </diagram>
</mxfile>
